<svg viewBox="0 0 600 600" xmlns="http://www.w3.org/2000/svg" fill="none" stroke="#f5f5f0" stroke-width="1.25" stroke-linecap="round" stroke-linejoin="round">
  <circle cx="300" cy="300" r="280" stroke-dasharray="1.25 7" />
  <g>
    <line x1="300" y1="10" x2="300" y2="32" /><line x1="289" y1="21" x2="311" y2="21" />
    <line x1="568" y1="300" x2="590" y2="300" /><line x1="579" y1="289" x2="579" y2="311" />
    <line x1="300" y1="568" x2="300" y2="590" /><line x1="289" y1="579" x2="311" y2="579" />
    <line x1="10" y1="300" x2="32" y2="300" /><line x1="21" y1="289" x2="21" y2="311" />
  </g>
  <circle cx="300" cy="300" r="245" stroke-dasharray="24 9" />
  <circle cx="300" cy="300" r="215" />
  <line x1="100" y1="300" x2="500" y2="300" />
  <line x1="300" y1="100" x2="300" y2="500" />
  <polygon points="300,100 340,260 500,300 340,340 300,500 260,340 100,300 260,260" />
  <line x1="300" y1="300" x2="340" y2="260" />
  <line x1="300" y1="300" x2="340" y2="340" />
  <line x1="300" y1="300" x2="260" y2="340" />
  <line x1="300" y1="300" x2="260" y2="260" />
  <circle cx="300" cy="300" r="55" stroke-dasharray="1 4.5" />
  <circle cx="300" cy="300" r="3" fill="#f5f5f0" stroke="none" />
</svg>
